<svg width="24" height="22" viewBox="0 0 24 22" fill="none" xmlns="http://www.w3.org/2000/svg">
<path d="M23.288 18.722C23.278 18.729 23.264 18.734 23.253 18.7421L18.978 6.63208L18.983 6.61804L18.972 6.61401L18.858 6.29102V6.22998H12.464V1.47998C12.464 1.31104 12.402 1.16504 12.278 1.04102C12.154 0.916992 12.007 0.85498 11.839 0.85498C11.671 0.85498 11.524 0.916992 11.4 1.04102C11.276 1.16504 11.214 1.31201 11.214 1.47998V6.22998H4.81897V6.29199L4.70497 6.61401L4.69397 6.61804L4.69897 6.63208L0.423965 18.741C0.413971 18.734 0.398972 18.729 0.388977 18.7211L0.000976562 19.802C1.34598 20.6481 3.20398 21.165 5.28697 21.165C7.36697 21.165 9.22197 20.65 10.566 19.806L10.547 19.7521L10.567 19.745L6.20598 7.396H11.838H17.47L13.11 19.745L13.13 19.7521L13.111 19.806C14.455 20.65 16.31 21.165 18.39 21.165C20.473 21.165 22.331 20.6481 23.676 19.802L23.288 18.722ZM9.16597 19.285C8.08098 19.771 6.73198 20.066 5.28598 20.066C3.86298 20.066 2.53697 19.7781 1.46097 19.3051L1.78697 18.381H8.84697L9.16597 19.285ZM8.45598 17.272H2.17897L5.31697 8.38403L8.45598 17.272ZM18.359 8.38403L21.497 17.272H15.221L18.359 8.38403ZM18.39 20.066C16.944 20.066 15.594 19.771 14.51 19.285L14.829 18.381H21.889L22.215 19.3051C21.139 19.7781 19.813 20.066 18.39 20.066Z" fill="#141414"/>
</svg>
