<svg width="20" height="14" viewBox="0 0 20 14" fill="none" xmlns="http://www.w3.org/2000/svg">
<path d="M6.56999 12.1392C5.463 11.5471 4.496 10.8892 3.67 10.1661C2.843 9.44312 2.179 8.77307 1.67799 8.15405C1.177 7.53613 0.906998 7.19409 0.867004 7.12915C0.789001 7.02515 0.75 6.90808 0.75 6.7771C0.75 6.64709 0.789001 6.53015 0.867004 6.42505C0.906006 6.36108 1.173 6.01917 1.668 5.40015C2.16299 4.7821 2.827 4.11108 3.66 3.38806C4.493 2.66516 5.463 2.00806 6.56999 1.41516C7.67599 0.82312 8.862 0.526123 10.125 0.526123C11.388 0.526123 12.573 0.82312 13.68 1.41516C14.786 2.00806 15.753 2.66516 16.58 3.38806C17.407 4.11108 18.071 4.7821 18.572 5.40015C19.073 6.01917 19.343 6.36108 19.383 6.42505C19.461 6.52905 19.5 6.64709 19.5 6.7771C19.5 6.90808 19.461 7.03113 19.383 7.14807C19.344 7.20105 19.073 7.53906 18.572 8.16406C18.071 8.78906 17.403 9.46008 16.57 10.1761C15.737 10.8931 14.766 11.5471 13.66 12.1392C12.553 12.7321 11.375 13.0281 10.125 13.0281C8.862 13.0281 7.677 12.7321 6.56999 12.1392ZM7.439 2.39307C6.586 2.8031 5.808 3.2821 5.105 3.8291C4.40199 4.3761 3.793 4.93005 3.27899 5.48914C2.76399 6.05005 2.39 6.47913 2.15601 6.77808C2.39 7.07812 2.76399 7.50708 3.27899 8.06714C3.793 8.62805 4.40199 9.18005 5.105 9.72705C5.808 10.274 6.589 10.7521 7.44901 11.1631C8.30901 11.5741 9.2 11.7781 10.125 11.7781C11.049 11.7781 11.938 11.5731 12.791 11.1631C13.644 10.7531 14.425 10.274 15.135 9.72705C15.844 9.18005 16.453 8.62708 16.961 8.06714C17.469 7.50708 17.846 7.07812 18.094 6.77808C17.846 6.47913 17.469 6.04907 16.961 5.48914C16.453 4.92908 15.848 4.3761 15.145 3.8291C14.442 3.2821 13.661 2.80408 12.801 2.39307C11.941 1.98206 11.05 1.77808 10.125 1.77808C9.188 1.77808 8.29199 1.98315 7.439 2.39307ZM7.479 9.42407C6.743 8.68909 6.375 7.80713 6.375 6.77808C6.375 5.75012 6.743 4.86816 7.479 4.13208C8.214 3.39709 9.097 3.02808 10.125 3.02808C11.153 3.02808 12.036 3.39612 12.771 4.13208C13.506 4.86816 13.875 5.75012 13.875 6.77808C13.875 7.80713 13.507 8.68909 12.771 9.42407C12.035 10.1602 11.153 10.5281 10.125 10.5281C9.09599 10.5281 8.214 10.1611 7.479 9.42407ZM8.35699 5.01013C7.869 5.49805 7.625 6.08813 7.625 6.77808C7.625 7.46814 7.869 8.05713 8.35699 8.54614C8.845 9.03516 9.43401 9.27808 10.125 9.27808C10.815 9.27808 11.404 9.03406 11.893 8.54614C12.382 8.05811 12.625 7.46912 12.625 6.77808C12.625 6.08911 12.381 5.49915 11.893 5.01013C11.405 4.52112 10.815 4.27808 10.125 4.27808C9.435 4.27808 8.84599 4.52209 8.35699 5.01013Z" fill="#141414"/>
</svg>
