<svg width="26" height="26" viewBox="0 0 26 26" fill="none" xmlns="http://www.w3.org/2000/svg">
<path d="M1 13H8V11.807H1V13ZM1 7.597H18V6.404H1V7.597ZM1 2.193H18V1H1V2.193Z" fill="#141414" stroke="#141414"/>
<path d="M19.325 10.523C19.725 10.69 20.105 10.897 20.466 11.142C20.827 11.375 21.156 11.646 21.453 11.956C21.763 12.253 22.034 12.582 22.266 12.944C22.511 13.305 22.717 13.686 22.885 14.087C23.065 14.5 23.194 14.926 23.272 15.365C23.362 15.791 23.407 16.237 23.407 16.702C23.407 17.115 23.368 17.522 23.291 17.922C23.227 18.31 23.123 18.691 22.982 19.065C22.84 19.439 22.665 19.795 22.459 20.13C22.266 20.466 22.046 20.776 21.801 21.06L24.845 24.109C24.896 24.16 24.935 24.218 24.961 24.283C24.987 24.347 25 24.412 25 24.477C25 24.554 24.987 24.625 24.961 24.69C24.935 24.741 24.896 24.799 24.845 24.864C24.819 24.877 24.793 24.896 24.767 24.922C24.742 24.935 24.709 24.948 24.671 24.961C24.645 24.974 24.613 24.987 24.574 25H24.477H24.381C24.355 24.987 24.323 24.974 24.284 24.961C24.258 24.948 24.226 24.935 24.187 24.922C24.161 24.896 24.135 24.877 24.11 24.864L21.066 21.796C20.769 22.055 20.453 22.28 20.118 22.474C19.796 22.668 19.447 22.836 19.073 22.978C18.699 23.133 18.312 23.249 17.913 23.327C17.526 23.391 17.126 23.423 16.713 23.423C16.249 23.423 15.797 23.378 15.359 23.288C14.92 23.197 14.501 23.068 14.101 22.9C13.688 22.719 13.301 22.513 12.94 22.28C12.592 22.035 12.263 21.764 11.954 21.467C11.657 21.157 11.386 20.828 11.141 20.479C10.909 20.117 10.703 19.73 10.522 19.317C10.354 18.917 10.225 18.497 10.135 18.058C10.045 17.619 10 17.167 10 16.702C10 16.237 10.045 15.791 10.135 15.365C10.225 14.926 10.354 14.5 10.522 14.087C10.703 13.686 10.909 13.305 11.141 12.944C11.386 12.582 11.657 12.253 11.954 11.956C12.263 11.646 12.592 11.375 12.94 11.142C13.301 10.897 13.688 10.69 14.101 10.523C14.501 10.342 14.92 10.213 15.359 10.135C15.797 10.045 16.249 10 16.713 10C17.177 10 17.622 10.045 18.048 10.135C18.487 10.213 18.912 10.342 19.325 10.523ZM11.47 18.91C11.625 19.259 11.799 19.588 11.992 19.898C12.199 20.195 12.431 20.473 12.689 20.731C12.947 20.989 13.224 21.222 13.521 21.428C13.83 21.622 14.159 21.796 14.508 21.951C14.843 22.093 15.191 22.203 15.552 22.28C15.926 22.358 16.313 22.397 16.713 22.397C17.1 22.397 17.474 22.358 17.835 22.28C18.209 22.203 18.57 22.093 18.919 21.951C19.267 21.796 19.589 21.622 19.886 21.428C20.183 21.222 20.46 20.989 20.718 20.731C20.976 20.473 21.208 20.195 21.414 19.898C21.621 19.588 21.795 19.259 21.937 18.91C22.092 18.574 22.201 18.226 22.266 17.864C22.343 17.489 22.382 17.102 22.382 16.702C22.382 16.314 22.343 15.94 22.266 15.578C22.201 15.204 22.092 14.842 21.937 14.493C21.795 14.145 21.621 13.822 21.414 13.525C21.208 13.228 20.976 12.95 20.718 12.692C20.46 12.434 20.183 12.201 19.886 11.995C19.589 11.788 19.267 11.614 18.919 11.472C18.57 11.317 18.209 11.207 17.835 11.142C17.474 11.065 17.1 11.026 16.713 11.026C16.313 11.026 15.926 11.065 15.552 11.142C15.191 11.207 14.843 11.317 14.508 11.472C14.159 11.614 13.83 11.788 13.521 11.995C13.224 12.201 12.947 12.434 12.689 12.692C12.431 12.95 12.199 13.228 11.992 13.525C11.799 13.822 11.625 14.145 11.47 14.493C11.328 14.842 11.219 15.204 11.141 15.578C11.064 15.94 11.025 16.314 11.025 16.702C11.025 17.102 11.064 17.489 11.141 17.864C11.219 18.226 11.328 18.574 11.47 18.91Z" fill="#141414" stroke="#141414"/>
</svg>
