<svg width="11" height="16" viewBox="0 0 11 16" fill="none" xmlns="http://www.w3.org/2000/svg">
<path d="M5.20083 15.7987C5.06021 15.7987 4.93788 15.7471 4.83553 15.6439C4.73234 15.5407 4.68075 15.4184 4.68075 15.2786V1.96693L0.893715 5.76983C0.785534 5.86796 0.660719 5.91712 0.520083 5.91712C0.37946 5.91712 0.254633 5.86796 0.146451 5.77065C0.0491006 5.66236 0 5.53763 0 5.39704C0 5.25646 0.0491006 5.13151 0.146451 5.02343L4.8272 0.342685C4.85965 0.320948 4.88962 0.301851 4.91625 0.286004C4.94287 0.269346 4.97283 0.251061 5.00528 0.229527C5.07019 0.207789 5.1351 0.197021 5.20001 0.197021C5.2649 0.197021 5.32981 0.207789 5.39472 0.229527C5.42717 0.251061 5.45713 0.270158 5.48375 0.286004C5.51039 0.302663 5.54035 0.320948 5.5728 0.342685L10.2535 5.02343C10.3509 5.13151 10.4 5.25646 10.4 5.39704C10.4 5.53763 10.3509 5.66236 10.2535 5.77065C10.1995 5.81392 10.1395 5.84968 10.0746 5.87629C10.0097 5.90372 9.94483 5.91712 9.87992 5.91712C9.81501 5.91712 9.7501 5.90372 9.6852 5.87629C9.62029 5.84968 9.56038 5.81392 9.50628 5.77065L5.71925 1.96774V15.2786C5.71925 15.4192 5.66766 15.5407 5.56447 15.6439C5.46379 15.7471 5.34147 15.7987 5.20083 15.7987Z" fill="#141414"/>
</svg>
