<svg width="9" height="10" viewBox="0 0 9 10" fill="none" xmlns="http://www.w3.org/2000/svg">
<path d="M0.301 9.199C0.184 9.069 0.125 8.92 0.125 8.75C0.125 8.581 0.184 8.432 0.301 8.301L3.621 5L0.301 1.699C0.184 1.569 0.125 1.42 0.125 1.25C0.125 1.081 0.184 0.932 0.301 0.801C0.431 0.684 0.58 0.625 0.75 0.625C0.919 0.625 1.068 0.684 1.199 0.801L4.5 4.121L7.801 0.801C7.931 0.684 8.08 0.625 8.25 0.625C8.419 0.625 8.568 0.684 8.699 0.801C8.816 0.932 8.875 1.081 8.875 1.25C8.875 1.42 8.816 1.569 8.699 1.699L5.379 5L8.699 8.301C8.816 8.432 8.875 8.581 8.875 8.75C8.875 8.92 8.816 9.069 8.699 9.199C8.634 9.252 8.562 9.294 8.484 9.326C8.406 9.359 8.328 9.375 8.25 9.375C8.172 9.375 8.094 9.359 8.016 9.326C7.938 9.294 7.866 9.252 7.801 9.199L4.5 5.879L1.199 9.199C1.134 9.252 1.062 9.294 0.984 9.326C0.906 9.359 0.828 9.375 0.75 9.375C0.672 9.375 0.594 9.359 0.516 9.326C0.437 9.294 0.365 9.252 0.301 9.199Z" fill="#858585"/>
</svg>
