<svg width="29" height="20" viewBox="0 0 29 20" fill="none" xmlns="http://www.w3.org/2000/svg">
<g clip-path="url(#clip0_4021_536)">
<path d="M0 2.3519C0 1.30256 0.83766 0.451904 1.87097 0.451904H27.129C28.1623 0.451904 29 1.30256 29 2.3519V17.5519C29 18.6012 28.1623 19.4519 27.129 19.4519H1.87097C0.83766 19.4519 0 18.6012 0 17.5519V2.3519Z" fill="#F5F5F5"/>
<path d="M13.2559 12.699H11.7292L12.6833 6.73354H14.2101L13.2559 12.699ZM10.4449 6.73354L8.98939 10.8366L8.81717 9.95309L8.30363 7.27067C8.30363 7.27067 8.24152 6.73354 7.57943 6.73354H5.17327L5.14502 6.83458C5.14502 6.83458 5.88082 6.99028 6.74198 7.51639L8.06831 12.6992H9.65901L12.0879 6.73354H10.4449ZM22.4529 12.699H23.8547L22.6325 6.7334H21.4052C20.8385 6.7334 20.7005 7.17795 20.7005 7.17795L18.4236 12.699H20.015L20.3333 11.8129H22.2741L22.4529 12.699ZM20.773 10.5888L21.5751 8.35643L22.0264 10.5888H20.773ZM18.543 8.16809L18.7608 6.88706C18.7608 6.88706 18.0886 6.62695 17.3877 6.62695C16.6301 6.62695 14.831 6.96382 14.831 8.60181C14.831 10.143 16.9425 10.1621 16.9425 10.9716C16.9425 11.7812 15.0485 11.6361 14.4235 11.1256L14.1965 12.4651C14.1965 12.4651 14.8782 12.802 15.9197 12.802C16.9615 12.802 18.5332 12.2532 18.5332 10.7596C18.5332 9.20853 16.4027 9.06413 16.4027 8.38977C16.4028 7.71523 17.8897 7.80187 18.543 8.16809Z" fill="url(#paint0_linear_4021_536)"/>
</g>
<defs>
<linearGradient id="paint0_linear_4021_536" x1="8.1663" y1="8.7512" x2="16.3762" y2="16.11" gradientUnits="userSpaceOnUse">
<stop stop-color="#222357"/>
<stop offset="1" stop-color="#254AA5"/>
</linearGradient>
<clipPath id="clip0_4021_536">
<rect width="29" height="19" fill="white" transform="translate(0 0.451904)"/>
</clipPath>
</defs>
</svg>
